<?xml version="1.0" encoding="utf-8"?>
<!-- Generator: Adobe Illustrator 17.1.0, SVG Export Plug-In . SVG Version: 6.00 Build 0)  -->
<!DOCTYPE svg PUBLIC "-//W3C//DTD SVG 1.1//EN" "http://www.w3.org/Graphics/SVG/1.1/DTD/svg11.dtd">
<svg version="1.1" id="Layer_1" xmlns="http://www.w3.org/2000/svg" xmlns:xlink="http://www.w3.org/1999/xlink" x="0px" y="0px"
	 viewBox="0 0 288 288" enable-background="new 0 0 288 288" xml:space="preserve">
<g>
	<path fill="#2ECC71" d="M138.7,206.2h-15.4h-6.2v-158c0-2.6-2.2-5-4.8-5H87.8L52.1,73.5c-0.8,0.8-1.6,3-1.6,4v16.8
		c0,2.6,2.2,5,4.8,5h22.4v106.8h-6.3H55.9c-3,0-5,2.2-5,5v24.2c0,2.6,2.2,4.8,5,4.8h15.4h52.1h15.4c3,0,5-2.2,5-4.8v-24.2
		C143.8,208.2,141.7,206.2,138.7,206.2z"/>
	<path fill="#2ECC71" d="M232,183.6v-72.4c0-20.3-15.7-41.8-44.8-41.8c-2,0-4,0-5.8,0V58.6c0-2.9-3.1-4.6-5.6-3.1l-43.2,26.2
		c-1,0.6-2.2,2.3-2.2,3.6v1c0,1.3,1,3,2.2,3.6l43.3,25.4c2.4,1.4,5.4-0.3,5.4-3.1v-10.8c1.8,0,3.8,0,5.8,0c12.5,0,12.8,8.9,12.8,9.8
		v72.4c-9.8,5.6-16.5,16.2-16.5,28.2c0,17.9,14.6,32.5,32.5,32.5s32.5-14.6,32.5-32.5C248.5,199.8,241.8,189.2,232,183.6z
		 M216,228.2c-9,0-16.5-7.4-16.5-16.5s7.4-16.5,16.5-16.5s16.5,7.4,16.5,16.5C232.5,220.9,225,228.2,216,228.2z"/>
</g>
</svg>
